<svg width="159" height="65" viewBox="0 0 159 65" fill="none" xmlns="http://www.w3.org/2000/svg">
<path d="M0.5 0H151.5V58H0.5V0Z" fill="black"/>
<path d="M36.5469 26.0146H33.3037L33.2861 24.6523H36.2305C36.7168 24.6523 37.1416 24.5703 37.5049 24.4062C37.8682 24.2422 38.1494 24.0078 38.3486 23.7031C38.5537 23.3926 38.6562 23.0234 38.6562 22.5957C38.6562 22.127 38.5654 21.7461 38.3838 21.4531C38.208 21.1543 37.9355 20.9375 37.5664 20.8027C37.2031 20.6621 36.7402 20.5918 36.1777 20.5918H33.6816V32H31.9854V19.2031H36.1777C36.834 19.2031 37.4199 19.2705 37.9355 19.4053C38.4512 19.5342 38.8877 19.7393 39.2451 20.0205C39.6084 20.2959 39.8838 20.6475 40.0713 21.0752C40.2588 21.5029 40.3525 22.0156 40.3525 22.6133C40.3525 23.1406 40.2178 23.6182 39.9482 24.0459C39.6787 24.4678 39.3037 24.8135 38.8232 25.083C38.3486 25.3525 37.792 25.5254 37.1533 25.6016L36.5469 26.0146ZM36.4678 32H32.6357L33.5938 30.6201H36.4678C37.0068 30.6201 37.4639 30.5264 37.8389 30.3389C38.2197 30.1514 38.5098 29.8877 38.709 29.5479C38.9082 29.2021 39.0078 28.7949 39.0078 28.3262C39.0078 27.8516 38.9229 27.4414 38.7529 27.0957C38.583 26.75 38.3164 26.4834 37.9531 26.2959C37.5898 26.1084 37.1211 26.0146 36.5469 26.0146H34.1299L34.1475 24.6523H37.4521L37.8125 25.1445C38.4277 25.1973 38.9492 25.373 39.377 25.6719C39.8047 25.9648 40.1299 26.3398 40.3525 26.7969C40.5811 27.2539 40.6953 27.7578 40.6953 28.3086C40.6953 29.1055 40.5195 29.7793 40.168 30.3301C39.8223 30.875 39.333 31.291 38.7002 31.5781C38.0674 31.8594 37.3232 32 36.4678 32ZM42.5234 27.3506V27.1484C42.5234 26.4629 42.623 25.8271 42.8223 25.2412C43.0215 24.6494 43.3086 24.1367 43.6836 23.7031C44.0586 23.2637 44.5127 22.9238 45.0459 22.6836C45.5791 22.4375 46.1768 22.3145 46.8389 22.3145C47.5068 22.3145 48.1074 22.4375 48.6406 22.6836C49.1797 22.9238 49.6367 23.2637 50.0117 23.7031C50.3926 24.1367 50.6826 24.6494 50.8818 25.2412C51.0811 25.8271 51.1807 26.4629 51.1807 27.1484V27.3506C51.1807 28.0361 51.0811 28.6719 50.8818 29.2578C50.6826 29.8438 50.3926 30.3564 50.0117 30.7959C49.6367 31.2295 49.1826 31.5693 48.6494 31.8154C48.1221 32.0557 47.5244 32.1758 46.8564 32.1758C46.1885 32.1758 45.5879 32.0557 45.0547 31.8154C44.5215 31.5693 44.0645 31.2295 43.6836 30.7959C43.3086 30.3564 43.0215 29.8438 42.8223 29.2578C42.623 28.6719 42.5234 28.0361 42.5234 27.3506ZM44.1494 27.1484V27.3506C44.1494 27.8252 44.2051 28.2734 44.3164 28.6953C44.4277 29.1113 44.5947 29.4805 44.8174 29.8027C45.0459 30.125 45.3301 30.3799 45.6699 30.5674C46.0098 30.749 46.4053 30.8398 46.8564 30.8398C47.3018 30.8398 47.6914 30.749 48.0254 30.5674C48.3652 30.3799 48.6465 30.125 48.8691 29.8027C49.0918 29.4805 49.2588 29.1113 49.3701 28.6953C49.4873 28.2734 49.5459 27.8252 49.5459 27.3506V27.1484C49.5459 26.6797 49.4873 26.2373 49.3701 25.8213C49.2588 25.3994 49.0889 25.0273 48.8604 24.7051C48.6377 24.377 48.3564 24.1191 48.0166 23.9316C47.6826 23.7441 47.29 23.6504 46.8389 23.6504C46.3936 23.6504 46.001 23.7441 45.6611 23.9316C45.3271 24.1191 45.0459 24.377 44.8174 24.7051C44.5947 25.0273 44.4277 25.3994 44.3164 25.8213C44.2051 26.2373 44.1494 26.6797 44.1494 27.1484ZM52.7891 27.3506V27.1484C52.7891 26.4629 52.8887 25.8271 53.0879 25.2412C53.2871 24.6494 53.5742 24.1367 53.9492 23.7031C54.3242 23.2637 54.7783 22.9238 55.3115 22.6836C55.8447 22.4375 56.4424 22.3145 57.1045 22.3145C57.7725 22.3145 58.373 22.4375 58.9062 22.6836C59.4453 22.9238 59.9023 23.2637 60.2773 23.7031C60.6582 24.1367 60.9482 24.6494 61.1475 25.2412C61.3467 25.8271 61.4463 26.4629 61.4463 27.1484V27.3506C61.4463 28.0361 61.3467 28.6719 61.1475 29.2578C60.9482 29.8438 60.6582 30.3564 60.2773 30.7959C59.9023 31.2295 59.4482 31.5693 58.915 31.8154C58.3877 32.0557 57.79 32.1758 57.1221 32.1758C56.4541 32.1758 55.8535 32.0557 55.3203 31.8154C54.7871 31.5693 54.3301 31.2295 53.9492 30.7959C53.5742 30.3564 53.2871 29.8438 53.0879 29.2578C52.8887 28.6719 52.7891 28.0361 52.7891 27.3506ZM54.415 27.1484V27.3506C54.415 27.8252 54.4707 28.2734 54.582 28.6953C54.6934 29.1113 54.8604 29.4805 55.083 29.8027C55.3115 30.125 55.5957 30.3799 55.9355 30.5674C56.2754 30.749 56.6709 30.8398 57.1221 30.8398C57.5674 30.8398 57.957 30.749 58.291 30.5674C58.6309 30.3799 58.9121 30.125 59.1348 29.8027C59.3574 29.4805 59.5244 29.1113 59.6357 28.6953C59.7529 28.2734 59.8115 27.8252 59.8115 27.3506V27.1484C59.8115 26.6797 59.7529 26.2373 59.6357 25.8213C59.5244 25.3994 59.3545 25.0273 59.126 24.7051C58.9033 24.377 58.6221 24.1191 58.2822 23.9316C57.9482 23.7441 57.5557 23.6504 57.1045 23.6504C56.6592 23.6504 56.2666 23.7441 55.9268 23.9316C55.5928 24.1191 55.3115 24.377 55.083 24.7051C54.8604 25.0273 54.6934 25.3994 54.582 25.8213C54.4707 26.2373 54.415 26.6797 54.415 27.1484ZM65.1201 18.5V32H63.4854V18.5H65.1201ZM70.9297 22.4902L66.7812 26.9287L64.4609 29.3369L64.3291 27.6055L65.9902 25.6191L68.9434 22.4902H70.9297ZM69.4443 32L66.0518 27.4648L66.8955 26.0146L71.3604 32H69.4443ZM82.6807 30.374V25.4785C82.6807 25.1035 82.6045 24.7783 82.4521 24.5029C82.3057 24.2217 82.083 24.0049 81.7842 23.8525C81.4854 23.7002 81.1162 23.624 80.6768 23.624C80.2666 23.624 79.9062 23.6943 79.5957 23.835C79.291 23.9756 79.0508 24.1602 78.875 24.3887C78.7051 24.6172 78.6201 24.8633 78.6201 25.127H76.9941C76.9941 24.7871 77.082 24.4502 77.2578 24.1162C77.4336 23.7822 77.6855 23.4805 78.0137 23.2109C78.3477 22.9355 78.7461 22.7188 79.209 22.5605C79.6777 22.3965 80.1992 22.3145 80.7734 22.3145C81.4648 22.3145 82.0742 22.4316 82.6016 22.666C83.1348 22.9004 83.5508 23.2549 83.8496 23.7295C84.1543 24.1982 84.3066 24.7871 84.3066 25.4961V29.9258C84.3066 30.2422 84.333 30.5791 84.3857 30.9365C84.4443 31.2939 84.5293 31.6016 84.6406 31.8594V32H82.9443C82.8623 31.8125 82.7979 31.5635 82.751 31.2529C82.7041 30.9365 82.6807 30.6436 82.6807 30.374ZM82.9619 26.2344L82.9795 27.377H81.3359C80.873 27.377 80.46 27.415 80.0967 27.4912C79.7334 27.5615 79.4287 27.6699 79.1826 27.8164C78.9365 27.9629 78.749 28.1475 78.6201 28.3701C78.4912 28.5869 78.4268 28.8418 78.4268 29.1348C78.4268 29.4336 78.4941 29.7061 78.6289 29.9521C78.7637 30.1982 78.9658 30.3945 79.2354 30.541C79.5107 30.6816 79.8477 30.752 80.2461 30.752C80.7441 30.752 81.1836 30.6465 81.5645 30.4355C81.9453 30.2246 82.2471 29.9668 82.4697 29.6621C82.6982 29.3574 82.8213 29.0615 82.8389 28.7744L83.5332 29.5566C83.4922 29.8027 83.3809 30.0752 83.1992 30.374C83.0176 30.6729 82.7744 30.96 82.4697 31.2354C82.1709 31.5049 81.8135 31.7305 81.3975 31.9121C80.9873 32.0879 80.5244 32.1758 80.0088 32.1758C79.3643 32.1758 78.7988 32.0498 78.3125 31.7979C77.832 31.5459 77.457 31.209 77.1875 30.7871C76.9238 30.3594 76.792 29.8818 76.792 29.3545C76.792 28.8447 76.8916 28.3965 77.0908 28.0098C77.29 27.6172 77.5771 27.292 77.9521 27.0342C78.3271 26.7705 78.7783 26.5713 79.3057 26.4365C79.833 26.3018 80.4219 26.2344 81.0723 26.2344H82.9619ZM95.1348 30.8398C95.5215 30.8398 95.8789 30.7607 96.207 30.6025C96.5352 30.4443 96.8047 30.2275 97.0156 29.9521C97.2266 29.6709 97.3467 29.3516 97.376 28.9941H98.9229C98.8936 29.5566 98.7031 30.0811 98.3516 30.5674C98.0059 31.0479 97.5518 31.4375 96.9893 31.7363C96.4268 32.0293 95.8086 32.1758 95.1348 32.1758C94.4199 32.1758 93.7959 32.0498 93.2627 31.7979C92.7354 31.5459 92.2959 31.2002 91.9443 30.7607C91.5986 30.3213 91.3379 29.8174 91.1621 29.249C90.9922 28.6748 90.9072 28.0684 90.9072 27.4297V27.0605C90.9072 26.4219 90.9922 25.8184 91.1621 25.25C91.3379 24.6758 91.5986 24.1689 91.9443 23.7295C92.2959 23.29 92.7354 22.9443 93.2627 22.6924C93.7959 22.4404 94.4199 22.3145 95.1348 22.3145C95.8789 22.3145 96.5293 22.4668 97.0859 22.7715C97.6426 23.0703 98.0791 23.4805 98.3955 24.002C98.7178 24.5176 98.8936 25.1035 98.9229 25.7598H97.376C97.3467 25.3672 97.2354 25.0127 97.042 24.6963C96.8545 24.3799 96.5967 24.1279 96.2686 23.9404C95.9463 23.7471 95.5684 23.6504 95.1348 23.6504C94.6367 23.6504 94.2178 23.75 93.8779 23.9492C93.5439 24.1426 93.2773 24.4062 93.0781 24.7402C92.8848 25.0684 92.7441 25.4346 92.6562 25.8389C92.5742 26.2373 92.5332 26.6445 92.5332 27.0605V27.4297C92.5332 27.8457 92.5742 28.2559 92.6562 28.6602C92.7383 29.0645 92.876 29.4307 93.0693 29.7588C93.2686 30.0869 93.5352 30.3506 93.8691 30.5498C94.209 30.7432 94.6309 30.8398 95.1348 30.8398ZM106.358 30.374V25.4785C106.358 25.1035 106.282 24.7783 106.13 24.5029C105.983 24.2217 105.761 24.0049 105.462 23.8525C105.163 23.7002 104.794 23.624 104.354 23.624C103.944 23.624 103.584 23.6943 103.273 23.835C102.969 23.9756 102.729 24.1602 102.553 24.3887C102.383 24.6172 102.298 24.8633 102.298 25.127H100.672C100.672 24.7871 100.76 24.4502 100.936 24.1162C101.111 23.7822 101.363 23.4805 101.691 23.2109C102.025 22.9355 102.424 22.7188 102.887 22.5605C103.355 22.3965 103.877 22.3145 104.451 22.3145C105.143 22.3145 105.752 22.4316 106.279 22.666C106.812 22.9004 107.229 23.2549 107.527 23.7295C107.832 24.1982 107.984 24.7871 107.984 25.4961V29.9258C107.984 30.2422 108.011 30.5791 108.063 30.9365C108.122 31.2939 108.207 31.6016 108.318 31.8594V32H106.622C106.54 31.8125 106.476 31.5635 106.429 31.2529C106.382 30.9365 106.358 30.6436 106.358 30.374ZM106.64 26.2344L106.657 27.377H105.014C104.551 27.377 104.138 27.415 103.774 27.4912C103.411 27.5615 103.106 27.6699 102.86 27.8164C102.614 27.9629 102.427 28.1475 102.298 28.3701C102.169 28.5869 102.104 28.8418 102.104 29.1348C102.104 29.4336 102.172 29.7061 102.307 29.9521C102.441 30.1982 102.644 30.3945 102.913 30.541C103.188 30.6816 103.525 30.752 103.924 30.752C104.422 30.752 104.861 30.6465 105.242 30.4355C105.623 30.2246 105.925 29.9668 106.147 29.6621C106.376 29.3574 106.499 29.0615 106.517 28.7744L107.211 29.5566C107.17 29.8027 107.059 30.0752 106.877 30.374C106.695 30.6729 106.452 30.96 106.147 31.2354C105.849 31.5049 105.491 31.7305 105.075 31.9121C104.665 32.0879 104.202 32.1758 103.687 32.1758C103.042 32.1758 102.477 32.0498 101.99 31.7979C101.51 31.5459 101.135 31.209 100.865 30.7871C100.602 30.3594 100.47 29.8818 100.47 29.3545C100.47 28.8447 100.569 28.3965 100.769 28.0098C100.968 27.6172 101.255 27.292 101.63 27.0342C102.005 26.7705 102.456 26.5713 102.983 26.4365C103.511 26.3018 104.1 26.2344 104.75 26.2344H106.64ZM112.309 18.5V32H110.674V18.5H112.309ZM116.686 18.5V32H115.051V18.5H116.686Z" fill="white"/>
</svg>
